<svg xmlns="http://www.w3.org/2000/svg" width="24" height="14" viewBox="0 0 24 14"><g><g><path fill="#c2c2c2" d="M23.836 7.53C23.66 7.794 19.412 14 11.998 14 4.584 14 .338 7.794.16 7.53a.952.952 0 0 1 0-1.06C.337 6.206 4.584 0 11.998 0c7.414 0 11.66 6.206 11.838 6.47.215.32.215.74 0 1.06zm-1.972-.528c-1.143-1.402-4.659-5.105-9.866-5.105-5.227 0-8.726 3.698-9.866 5.101 1.144 1.402 4.66 5.105 9.866 5.105 5.227 0 8.727-3.698 9.866-5.101zm-6.338-2.667a4.42 4.42 0 0 1 .843 3.287 4.41 4.41 0 0 1-1.717 2.921 4.367 4.367 0 0 1-2.651.89 4.376 4.376 0 0 1-3.532-1.769 4.451 4.451 0 0 1 .875-6.207 4.372 4.372 0 0 1 2.651-.89c1.403 0 2.69.644 3.531 1.768zm-1.132.855a2.97 2.97 0 0 0-2.398-1.2c-.653 0-1.276.209-1.8.604a3.022 3.022 0 0 0-.593 4.215A2.973 2.973 0 0 0 12 10.01a2.96 2.96 0 0 0 1.799-.605 2.994 2.994 0 0 0 1.166-1.983 3.002 3.002 0 0 0-.572-2.232zm-.72.13a.965.965 0 0 1 .276.671.96.96 0 0 1-.276.671.957.957 0 0 1-.669.277.953.953 0 0 1-.668-.277.964.964 0 0 1-.276-.671c0-.25.102-.493.276-.671a.958.958 0 0 1 .668-.278c.249 0 .492.102.669.278z"/></g></g></svg>